0
SECTION
2
HEADER
9
$INSUNITS
70
4
9
$ACADVER
1
AC1014
9
$HANDSEED
5
FFFF
0
ENDSEC
0
SECTION
2
TABLES
0
TABLE
2
VPORT
5
8
100
AcDbSymbolTable
0
ENDTAB
0
TABLE
2
LTYPE
5
5
100
AcDbSymbolTable
0
LTYPE
5
14
100
AcDbSymbolTableRecord
100
AcDbLinetypeTableRecord
2
BYBLOCK
70
0
0
LTYPE
5
15
100
AcDbSymbolTableRecord
100
AcDbLinetypeTableRecord
2
BYLAYER
70
0
0
ENDTAB
0
TABLE
2
LAYER
5
2
100
AcDbSymbolTable
70
2
0
LAYER
5
50
100
AcDbSymbolTableRecord
100
AcDbLayerTableRecord
2
0
70
0
6
CONTINUOUS
0
ENDTAB
0
TABLE
2
STYLE
5
3
100
AcDbSymbolTable
70
1
0
STYLE
5
11
100
AcDbSymbolTableRecord
100
AcDbTextStyleTableRecord
2
STANDARD
70
0
0
ENDTAB
0
TABLE
2
VIEW
5
6
100
AcDbSymbolTable
70
0
0
ENDTAB
0
TABLE
2
UCS
5
7
100
AcDbSymbolTable
70
0
0
ENDTAB
0
TABLE
2
APPID
5
9
100
AcDbSymbolTable
70
2
0
APPID
5
12
100
AcDbSymbolTableRecord
100
AcDbRegAppTableRecord
2
ACAD
70
0
0
ENDTAB
0
TABLE
2
DIMSTYLE
5
A
100
AcDbSymbolTable
70
1
0
ENDTAB
0
TABLE
2
BLOCK_RECORD
5
1
100
AcDbSymbolTable
70
1
0
BLOCK_RECORD
5
1F
100
AcDbSymbolTableRecord
100
AcDbBlockTableRecord
2
*MODEL_SPACE
0
BLOCK_RECORD
5
1B
100
AcDbSymbolTableRecord
100
AcDbBlockTableRecord
2
*PAPER_SPACE
0
ENDTAB
0
ENDSEC
0
SECTION
2
BLOCKS
0
BLOCK
5
20
100
AcDbEntity
100
AcDbBlockBegin
2
*MODEL_SPACE
0
ENDBLK
5
21
100
AcDbEntity
100
AcDbBlockEnd
0
BLOCK
5
1C
100
AcDbEntity
100
AcDbBlockBegin
2
*PAPER_SPACE
0
ENDBLK
5
1D
100
AcDbEntity
100
AcDbBlockEnd
0
ENDSEC
0
SECTION
2
ENTITIES
0
CIRCLE
5
100
100
AcDbEntity
8
0
100
AcDbCircle
10
0
20
0
30
0
40
1.5000000000000002
210
0
220
0
230
1
0
CIRCLE
5
101
100
AcDbEntity
8
0
100
AcDbCircle
10
15
20
0
30
0
40
1.5000000000000002
210
0
220
0
230
1
0
CIRCLE
5
102
100
AcDbEntity
8
0
100
AcDbCircle
10
0
20
10
30
0
40
1.5000000000000002
210
0
220
0
230
1
0
CIRCLE
5
103
100
AcDbEntity
8
0
100
AcDbCircle
10
15
20
10
30
0
40
1.5000000000000002
210
0
220
0
230
1
0
LWPOLYLINE
5
104
100
AcDbEntity
8
0
100
AcDbPolyline
90
14
70
1
43
0.0
10
-4.9999999999999982
20
10
10
-4.9999999999999991
20
-2.2204460492503131e-15
42
0.36966381332933068
10
-0.76923076923077471
20
-4.9404740687173572
42
-0.36966381332932996
10
0.49999999999999356
20
-6.4226162893325611
10
0.49999999999999351
20
-63.000000000000007
42
0.41421356237309509
10
2.4999999999999889
20
-65.000000000000014
10
12.500000000000004
20
-65
42
0.41421356237309598
10
14.500000000000004
20
-63.000000000000007
10
14.499999999999995
20
-6.4226162893325647
42
-0.36966381332932985
10
15.769230769230763
20
-4.9404740687173598
42
0.36966381332933124
10
20
20
-4.4408920985006262e-15
10
20
20
10.000000000000004
42
0.41421356237309526
10
15.000000000000004
20
15
10
-1.1102230246251565e-15
20
15
42
0.41421356237309515
0
LINE
5
105
100
AcDbEntity
8
0
100
AcDbLine
10
0.49999999999999356
20
-63.000000000000007
30
0
11
0.49999999999999356
21
-6.4226162893325611
31
0
0
LINE
5
106
100
AcDbEntity
8
0
100
AcDbLine
10
14.499999999999995
20
-6.4226162893325647
30
0
11
14.500000000000004
21
-63.000000000000007
31
0
0
CIRCLE
5
107
100
AcDbEntity
8
0
100
AcDbCircle
10
7.4999999999999964
20
-35
30
0
40
2.5000000000000036
210
0
220
0
230
1
0
CIRCLE
5
108
100
AcDbEntity
8
0
100
AcDbCircle
10
7.4999999999999964
20
-55
30
0
40
2.5000000000000036
210
0
220
0
230
1
0
CIRCLE
5
109
100
AcDbEntity
8
0
100
AcDbCircle
10
7.4999999999999964
20
-15
30
0
40
2.5000000000000036
210
0
220
0
230
1
0
CIRCLE
5
110
100
AcDbEntity
8
0
100
AcDbCircle
10
45
20
10
30
0
40
1.5000000000000002
210
0
220
0
230
1
0
CIRCLE
5
111
100
AcDbEntity
8
0
100
AcDbCircle
10
45
20
0
30
0
40
1.5000000000000002
210
0
220
0
230
1
0
LWPOLYLINE
5
112
100
AcDbEntity
8
0
100
AcDbPolyline
90
8
70
1
43
0.0
10
50
20
-45.000000149011576
10
50
20
10.000000000000004
42
0.4142135623730957
10
45
20
15
10
30
20
15
42
0.41421356237312873
10
25.000000000000465
20
9.9999999999994227
10
25.000000000006509
20
-45.000000596047023
42
0.41421357110195961
10
30.000000149018142
20
-50.000000596046476
10
45.000000149011598
20
-50.000000149011612
42
0.41421355364419798
0
CIRCLE
5
113
100
AcDbEntity
8
0
100
AcDbCircle
10
31.499999999999993
20
-39
30
0
40
2.5000000000000036
210
0
220
0
230
1
0
CIRCLE
5
114
100
AcDbEntity
8
0
100
AcDbCircle
10
30
20
0
30
0
40
1.5000000000000002
210
0
220
0
230
1
0
CIRCLE
5
115
100
AcDbEntity
8
0
100
AcDbCircle
10
30
20
10
30
0
40
1.5000000000000002
210
0
220
0
230
1
0
LINE
5
116
100
AcDbEntity
8
0
100
AcDbLine
10
37.5
20
15
30
0
11
37.500000149014866
21
-50.000000372529044
31
0
0
CIRCLE
5
117
100
AcDbEntity
8
0
100
AcDbCircle
10
43.500000247593931
20
-38.999999972489576
30
0
40
2.5000000000000036
210
0
220
0
230
1
0
LWPOLYLINE
5
118
100
AcDbEntity
8
0
100
AcDbPolyline
90
14
70
1
43
0.0
10
-24.999999999999993
20
-65.000000000000014
10
-9.9999999999999911
20
-65.000000000000014
42
0.41421356237309509
10
-4.9999999999999911
20
-60.000000000000007
10
-4.9999999999999911
20
-50.000000000000007
42
0.36966381332933096
10
-9.230769230769214
20
-45.059525931282636
42
-0.36966381332932874
10
-10.49999999999998
20
-43.577383710667448
10
-10.499999999999989
20
12.999999999999998
42
0.41421356237309509
10
-12.499999999999991
20
14.999999999999991
10
-22.5
20
14.999999999999991
42
0.41421356237309637
10
-24.5
20
12.999999999999998
10
-24.499999999999989
20
-43.577383710667441
42
-0.36966381332933046
10
-25.769230769230759
20
-45.059525931282643
42
0.36966381332933101
10
-29.999999999999993
20
-50.000000000000007
10
-29.999999999999993
20
-60.000000000000007
42
0.41421356237309603
0
LINE
5
119
100
AcDbEntity
8
0
100
AcDbLine
10
-24.499999999999986
20
-43.577383710667441
30
0
11
-24.5
21
12.999999999999998
31
0
0
CIRCLE
5
120
100
AcDbEntity
8
0
100
AcDbCircle
10
-17.499999999999993
20
-35.000000000000007
30
0
40
2.5000000000000036
210
0
220
0
230
1
0
CIRCLE
5
121
100
AcDbEntity
8
0
100
AcDbCircle
10
-17.499999999999993
20
-15.000000000000009
30
0
40
2.5000000000000036
210
0
220
0
230
1
0
CIRCLE
5
122
100
AcDbEntity
8
0
100
AcDbCircle
10
-17.499999999999993
20
4.9999999999999911
30
0
40
2.5000000000000036
210
0
220
0
230
1
0
LINE
5
123
100
AcDbEntity
8
0
100
AcDbLine
10
-10.499999999999989
20
12.999999999999998
30
0
11
-10.49999999999998
21
-43.577383710667448
31
0
0
LWPOLYLINE
5
124
100
AcDbEntity
8
0
100
AcDbPolyline
90
4
70
1
43
0.0
10
-8.4999999999999876
20
-51.999999880790718
10
-8.4999999999999876
20
-58.000000119209297
10
-11.499999999999995
20
-58.000000119209297
10
-11.499999999999995
20
-51.999999880790718
0
LINE
5
125
100
AcDbEntity
8
0
100
AcDbLine
10
-17.499999999999993
20
4.9999999999999911
30
0
11
-17.499999999999993
21
-48.999999985098846
31
0
0
LWPOLYLINE
5
126
100
AcDbEntity
8
0
100
AcDbPolyline
90
4
70
1
43
0.0
10
-23.499999999999986
20
-51.999999880790718
10
-23.499999999999986
20
-58.000000119209297
10
-26.499999999999993
20
-58.000000119209297
10
-26.499999999999993
20
-51.999999880790718
0
ENDSEC
0
SECTION
2
OBJECTS
0
DICTIONARY
5
C
100
AcDbDictionary
3
ACAD_GROUP
350
D
3
ACAD_MLINESTYLE
350
17
0
DICTIONARY
5
D
100
AcDbDictionary
0
DICTIONARY
5
1A
330
C
100
AcDbDictionary
0
DICTIONARY
5
17
100
AcDbDictionary
0
ENDSEC
0
EOF
